<svg width="70" height="24" viewBox="0 0 70 24" fill="none" xmlns="http://www.w3.org/2000/svg">
<rect width="70" height="24" rx="2" fill="white"/>
<rect width="70" height="24" rx="2" fill="#CEAE64"/>
<path d="M24.275 7.06L27.523 11.386L30.757 7.06H31.863L28.055 12.1L31.751 17H30.645L27.523 12.814L24.387 17H23.267L26.963 12.1L23.155 7.06H24.275ZM32.9667 17V9.72H33.9187V15.712L38.3567 9.706H39.2107V17H38.2587V11.106L33.8907 17H32.9667ZM43.1132 17V10.56H40.5092V9.706H46.6692V10.56H44.0652V17H43.1132Z" fill="white"/>
<path d="M24.275 7.06L27.523 11.386L30.757 7.06H31.863L28.055 12.1L31.751 17H30.645L27.523 12.814L24.387 17H23.267L26.963 12.1L23.155 7.06H24.275ZM32.9667 17V9.72H33.9187V15.712L38.3567 9.706H39.2107V17H38.2587V11.106L33.8907 17H32.9667ZM43.1132 17V10.56H40.5092V9.706H46.6692V10.56H44.0652V17H43.1132Z" fill="white"/>
</svg>
