<svg width="181" height="71" viewBox="0 0 181 71" fill="none" xmlns="http://www.w3.org/2000/svg">
    <path d="M0.687611 11.4492H72.7343V12.8179H1.37198V69.059H179.346V12.8179H107.981V11.4492H180.715V70.4309H0V11.4492H0.687611Z" fill="white"/>
    <path d="M33.2343 45.6072C33.2343 46.3564 33.0429 47.0246 32.6602 47.6116C32.2774 48.1987 31.765 48.6593 31.1228 48.9901C30.4806 49.3242 29.7767 49.4896 29.0113 49.4896H21.9016V34.4238H29.1572C29.8643 34.4238 30.4773 34.6119 30.993 34.9849C31.5087 35.3612 31.9044 35.8412 32.1801 36.4283C32.4558 37.0153 32.5953 37.6283 32.5953 38.2641C32.5953 39.0133 32.4039 39.7074 32.0212 40.3431C31.6385 40.9788 31.1098 41.4524 30.4287 41.7637C31.2914 42.0167 31.9726 42.4935 32.4753 43.1843C32.978 43.8784 33.2278 44.6828 33.2278 45.604L33.2343 45.6072ZM31.7488 45.3542C31.7488 44.845 31.6352 44.3747 31.4082 43.9433C31.1812 43.5119 30.873 43.1616 30.4838 42.8924C30.0946 42.6232 29.6535 42.4903 29.1572 42.4903H23.3871V48.1987H29.0113C29.5205 48.1987 29.9811 48.0657 30.3898 47.7965C30.7984 47.5273 31.1293 47.177 31.3758 46.7456C31.6223 46.3143 31.7455 45.8504 31.7455 45.3542H31.7488ZM23.3871 35.7212V41.2805H28.5637C29.0599 41.2805 29.4978 41.1507 29.8805 40.888C30.2633 40.6253 30.5681 40.2847 30.7919 39.8598C31.019 39.4349 31.1325 38.9841 31.1325 38.5008C31.1325 37.9916 31.0255 37.5278 30.8146 37.1126C30.6038 36.6942 30.3119 36.3602 29.9454 36.1039C29.5789 35.8509 29.1605 35.7212 28.6934 35.7212H23.3871Z" fill="white"/>
    <path d="M40.3833 34.4238H41.6353L47.8952 49.4896H46.3253L44.4441 44.7801H37.555L35.6738 49.4896H34.0813L40.3833 34.4238ZM43.9771 43.6125L40.9996 36.1656L38.0221 43.6125H43.9771Z" fill="white"/>
    <path d="M51.5424 37.1613V49.4896H50.0569V34.4238H51.2862L61.1754 46.9857V34.4433H62.6609V49.4896H61.2825L51.5424 37.1613Z" fill="white"/>
    <path d="M66.5239 34.4238L71.4442 42.5292L76.4099 34.4238H78.0219L72.1869 43.8882V49.4896H70.7014V43.8428L64.8892 34.4238H66.5239Z" fill="white"/>
    <path d="M83.2412 34.4238H84.4932L90.7531 49.4896H89.1832L87.302 44.7801H80.4129L78.5317 49.4896H76.9392L83.2412 34.4238ZM86.835 43.6125L83.8575 36.1656L80.88 43.6125H86.835Z" fill="white"/>
    <path d="M101.51 37.2781C101.299 37.0381 101.049 36.8208 100.767 36.6294C100.485 36.438 100.167 36.2726 99.8137 36.1299C99.4601 35.9872 99.0806 35.8769 98.6784 35.7893C98.2763 35.705 97.8481 35.6628 97.394 35.6628C96.0772 35.6628 95.1139 35.9126 94.4976 36.4153C93.8814 36.9148 93.5733 37.5959 93.5733 38.4587C93.5733 39.0522 93.7192 39.516 94.0079 39.8566C94.2966 40.1972 94.7539 40.4729 95.3766 40.6837C95.9994 40.8945 96.7908 41.1151 97.7541 41.3421C98.8276 41.5659 99.7553 41.8351 100.534 42.1465C101.312 42.4578 101.912 42.8795 102.337 43.4082C102.762 43.9336 102.973 44.6536 102.973 45.5586C102.973 46.2494 102.84 46.8494 102.571 47.3587C102.301 47.8679 101.928 48.2928 101.445 48.6268C100.965 48.9674 100.391 49.2172 99.7261 49.3793C99.0612 49.5415 98.3314 49.6226 97.54 49.6226C96.7616 49.6226 96.0156 49.5415 95.302 49.3793C94.5885 49.2172 93.9106 48.9771 93.2749 48.6593C92.6391 48.3414 92.0456 47.9328 91.491 47.4397L92.2337 46.23C92.5029 46.5121 92.824 46.7781 93.2003 47.0246C93.5765 47.2711 93.9917 47.4949 94.4522 47.6927C94.9128 47.8906 95.4058 48.043 95.9377 48.1501C96.4697 48.2571 97.0178 48.309 97.5822 48.309C98.7855 48.309 99.7228 48.0884 100.394 47.6506C101.066 47.216 101.403 46.564 101.403 45.7013C101.403 45.0818 101.234 44.5823 100.894 44.2093C100.553 43.8331 100.044 43.5282 99.3661 43.2849C98.6882 43.0481 97.8514 42.8146 96.8621 42.5876C95.8145 42.3476 94.9323 42.0784 94.209 41.78C93.4889 41.4816 92.9473 41.0891 92.5873 40.6058C92.2272 40.1193 92.0456 39.4706 92.0456 38.663C92.0456 37.7322 92.2759 36.944 92.7364 36.3018C93.197 35.6628 93.8295 35.1731 94.6371 34.8423C95.4447 34.5114 96.3691 34.3428 97.4167 34.3428C98.0817 34.3428 98.7011 34.4109 99.272 34.5439C99.8461 34.6768 100.375 34.8715 100.865 35.1277C101.351 35.3839 101.808 35.7018 102.233 36.0813L101.513 37.2683L101.51 37.2781Z" fill="white"/>
    <path d="M116.237 35.7374H110.888L110.866 49.4896H109.403L109.426 35.7374H104.035L104.058 34.4238H116.256L116.237 35.7374Z" fill="white"/>
    <path d="M124.043 49.6161C122.982 49.6161 122.019 49.4053 121.156 48.9804C120.293 48.5555 119.551 47.9782 118.928 47.2516C118.305 46.5219 117.825 45.7013 117.485 44.7899C117.144 43.8785 116.975 42.9411 116.975 41.9778C116.975 40.9724 117.154 40.0155 117.507 39.1041C117.861 38.1927 118.36 37.3786 119.003 36.6651C119.645 35.9515 120.4 35.3839 121.263 34.9688C122.126 34.5504 123.06 34.3428 124.066 34.3428C125.126 34.3428 126.089 34.5633 126.952 35.0012C127.815 35.4391 128.554 36.0261 129.171 36.7624C129.787 37.4986 130.264 38.3192 130.604 39.2241C130.945 40.1291 131.114 41.0567 131.114 42.0038C131.114 43.0092 130.935 43.966 130.582 44.8774C130.228 45.7889 129.732 46.603 129.096 47.3165C128.46 48.0301 127.711 48.5944 126.848 49.0031C125.986 49.4118 125.052 49.6194 124.046 49.6194L124.043 49.6161ZM118.461 41.9778C118.461 42.7984 118.594 43.5866 118.863 44.3423C119.132 45.098 119.515 45.7726 120.008 46.3597C120.504 46.9468 121.095 47.4138 121.779 47.7609C122.467 48.1079 123.219 48.2798 124.04 48.2798C124.902 48.2798 125.678 48.0982 126.362 47.7382C127.05 47.3781 127.637 46.8949 128.123 46.2948C128.61 45.6948 128.983 45.0169 129.236 44.2677C129.489 43.5184 129.618 42.753 129.618 41.9746C129.618 41.154 129.485 40.3691 129.216 39.6198C128.947 38.8706 128.561 38.1992 128.058 37.6057C127.556 37.0121 126.965 36.5451 126.287 36.2045C125.609 35.8639 124.857 35.6953 124.04 35.6953C123.19 35.6953 122.424 35.8737 121.737 36.2272C121.049 36.5807 120.462 37.0575 119.976 37.6608C119.489 38.2608 119.113 38.9387 118.85 39.688C118.587 40.4372 118.458 41.2026 118.458 41.9811L118.461 41.9778Z" fill="white"/>
    <path d="M133.908 49.4896V34.4238H140.274C140.926 34.4238 141.52 34.5568 142.058 34.826C142.597 35.0952 143.067 35.4585 143.469 35.9191C143.871 36.3796 144.183 36.8888 144.403 37.4467C144.624 38.0046 144.731 38.5754 144.731 39.156C144.731 39.876 144.591 40.5572 144.316 41.1929C144.04 41.8286 143.651 42.367 143.148 42.8049C142.645 43.2427 142.055 43.5346 141.377 43.6741L145.068 49.4896H143.391L139.846 43.9303H135.39V49.4896H133.904H133.908ZM135.393 42.6135H140.317C140.91 42.6135 141.426 42.4513 141.867 42.127C142.305 41.8026 142.645 41.3745 142.885 40.8426C143.125 40.3107 143.245 39.7496 143.245 39.156C143.245 38.5462 143.106 37.9851 142.83 37.4694C142.555 36.9537 142.188 36.5353 141.728 36.2174C141.267 35.8996 140.754 35.7407 140.19 35.7407H135.393V42.6167V42.6135Z" fill="white"/>
    <path d="M157.887 48.1728V49.4896H147.787L147.764 34.4238H157.696V35.7374H149.23L149.25 41.1702H156.612V42.4221L149.23 42.4027L149.25 48.1728H157.887Z" fill="white"/>
    <path fill-rule="evenodd" clip-rule="evenodd" d="M92.3023 6.92249C92.205 7.07169 92.205 7.10736 92.1693 7.30197C91.9877 8.23932 92.3931 9.26749 92.6039 10.3443C92.6428 10.5422 92.6526 10.5454 92.5391 10.6881C92.2828 10.7205 92.2472 10.5032 92.0428 10.5032C91.8806 10.9735 92.1434 12.1185 91.8482 12.8418C91.7866 12.9909 91.5076 13.4483 91.5822 13.5975C91.699 13.7207 92.2504 13.3023 92.3315 13.2537C93.1326 12.7672 93.791 12.9682 94.3878 12.4979C94.9684 12.0374 94.417 12.0698 93.9954 11.9141C94.0343 11.7617 94.2808 11.6903 94.4203 11.6255L95.9382 10.9541C96.5739 10.6719 97.3329 10.4773 96.5642 10.0686C96.4117 9.98753 96.2593 9.91293 96.0939 9.81563C95.7987 9.64697 95.9641 9.45885 96.0809 9.41344C96.5901 9.21884 98.1502 10.1075 99.0454 9.13451C99.2984 8.85882 99.1265 8.63502 98.9222 8.39176C98.8865 8.3496 98.8735 8.33662 98.8411 8.2977C98.7697 8.21337 98.7859 8.24256 98.7665 8.14526C99.0454 7.9766 99.013 8.04796 99.4314 8.06742C100.258 8.1031 101.014 8.28149 101.705 7.44144C101.773 7.35711 101.89 7.23386 101.874 7.07817C101.858 6.92897 101.708 6.88681 101.572 6.82843C101.03 6.58841 100.469 6.53652 101.131 6.08568C101.757 5.65755 102.672 6.18947 103.56 5.12238C103.641 5.02508 103.774 4.84021 103.823 4.70722C103.998 4.22071 103.44 4.20449 104.115 3.78933C104.806 3.36444 105.296 3.24444 104.897 2.82603C104.592 2.50493 105.01 2.48223 105.409 2.19357C106.599 1.32757 105.763 0.532928 104.556 0.841054C104.381 0.886462 104.164 0.977278 103.985 0.970792C103.885 0.756725 103.842 0.523197 103.557 0.481033C103.2 0.425894 102.626 0.863757 102.279 1.07134C102.11 1.17188 101.838 1.37946 101.643 1.40541C101.488 1.11026 101.549 1.12323 101.634 0.802133C101.676 0.636718 101.763 0.296158 101.656 0.143717C101.42 -0.18387 100.093 0.026953 99.5968 0.999982C99.4671 1.25621 99.2692 1.75246 98.8995 1.88544C98.5557 2.00869 98.3935 1.42163 98.2086 1.02593C97.9978 0.568605 97.9005 0.286427 97.294 0.584822C96.9858 0.737264 96.6874 1.0908 96.4993 1.36973C95.9836 2.12545 95.8668 2.96226 95.8409 3.88664C95.8344 4.10719 95.7598 4.43802 95.5133 4.2499C95.4387 4.19476 95.2928 3.82501 95.2441 3.71149C95.0268 3.20552 94.9392 2.99469 94.4235 3.41634C93.0969 4.4964 93.697 5.76134 93.9013 7.01006C93.9273 7.17872 93.9792 7.64253 93.8689 7.73335C93.5834 7.96363 92.8245 7.23061 92.6169 7.04249C92.5131 6.94844 92.4774 6.916 92.3185 6.91276L92.3023 6.92249ZM92.7596 13.2634L92.8926 13.2958C93.457 13.3023 93.817 13.1953 94.5111 13.4515C94.6278 13.4937 94.8711 13.6396 94.9425 13.6526C94.936 13.2958 94.3067 12.9455 94.0732 12.9358C93.9824 12.9326 93.5218 13.0461 93.4051 13.0753C93.298 13.1012 92.8148 13.1888 92.7564 13.2602L92.7596 13.2634ZM96.6615 19.1697C96.7328 19.5005 97.0248 20.1038 97.2745 20.3957C97.3199 20.4508 97.3588 20.4962 97.4205 20.5546C97.5405 20.6649 97.5145 20.6682 97.6345 20.6941C97.4691 20.1849 97.3426 20.0389 97.3134 19.4227C97.3037 19.2443 97.3296 19.0594 97.3134 18.894L96.6582 19.1729L96.6615 19.1697ZM83.0941 20.999C83.1752 20.9471 83.3731 20.7395 83.4736 20.6552C84.1288 20.0973 84.7191 19.9838 84.8748 19.8735C84.8424 19.8054 84.4304 19.4162 84.3785 19.3902C84.2553 19.3319 84.145 19.4908 84.0769 19.5492C83.772 19.8216 82.9806 20.6681 83.0941 20.999ZM93.3272 16.9317C93.3921 16.9512 93.6386 16.9642 93.7262 16.9771C93.8689 16.9966 93.9856 17.016 94.1121 17.0387C94.3489 17.0842 94.7284 17.1361 94.8938 16.9674C95.1111 16.7501 95.2311 16.3479 95.3576 16.0463L95.4614 15.7187C95.2149 15.6279 94.2289 15.4592 93.9208 15.6927C93.8137 15.7738 93.2851 16.7598 93.3272 16.9317ZM96.0128 15.4754C96.0906 15.5306 96.6226 15.6798 96.7426 15.7122C97.4756 15.9165 97.4886 15.6084 97.9232 15.0278L98.3513 14.4472C98.3189 14.4213 98.3708 14.444 98.2832 14.4051L97.6021 14.2105C96.8496 14.0126 96.6745 14.3143 96.3728 14.8365C96.2788 14.9986 96.042 15.3392 96.0096 15.4787L96.0128 15.4754ZM90.0189 19.0335C90.0189 18.5534 89.954 17.7166 89.6232 17.4669C89.3572 17.2658 88.3907 17.1069 87.9398 17.1296L88.0242 18.0345C88.1442 18.868 88.368 18.6021 89.2178 18.8486C89.3507 18.8875 89.9346 19.0367 90.0189 19.0335ZM87.4404 16.7079C87.4501 16.5101 87.1841 15.4138 86.9765 15.2127C86.7884 15.0343 86.5387 15.0148 86.2435 14.9759C86.0522 14.95 85.4813 14.937 85.2964 14.9662L85.4748 15.7414C85.5397 15.9814 85.5721 16.296 85.7116 16.4809C85.8673 16.6852 86.1624 16.7014 86.4608 16.7177C86.7754 16.7339 87.1225 16.7144 87.4436 16.7112L87.4404 16.7079ZM95.7306 19.5135C95.7533 19.734 96.4247 21.132 96.4344 21.3331C96.2463 21.2714 95.7468 20.5254 95.6268 20.3341C95.5166 20.1622 95.3998 19.9578 95.2733 19.7827C95.1695 19.64 94.7706 19.7243 94.5046 19.7535C94.5143 19.9286 95.0625 20.7817 95.163 20.9503C95.442 21.4077 95.5944 21.6639 95.9998 21.998C96.3469 22.2834 96.7458 22.4715 97.2291 22.6304C97.5924 22.7504 98.4292 22.9256 98.8476 22.8964C98.8314 22.7926 98.7405 22.7472 98.6724 22.6921L98.04 22.1926C97.4951 21.7223 97.0539 21.132 96.7685 20.4476C96.6161 20.0778 96.509 19.6984 96.3566 19.3286L95.7306 19.5167V19.5135ZM81.3556 23.1364C81.4367 23.078 81.693 22.1245 81.7773 21.9104C82.1827 20.866 82.7211 20.2076 83.5709 19.5038L84.0282 19.0983C83.9828 18.9978 83.6585 18.6118 83.5677 18.5599C83.399 18.641 82.1438 19.9319 81.9589 20.0487C81.9524 19.9254 82.2054 19.4616 82.28 19.3448C82.4227 19.1243 82.533 18.9718 82.7017 18.7383C83.1979 18.0475 83.1914 18.1707 82.9806 17.7231C82.9547 17.668 82.8574 17.4312 82.786 17.3988C82.666 17.4669 82.0238 18.3134 81.8843 18.4983C81.1189 19.507 80.814 20.0649 80.947 21.5374C80.9632 21.7158 81.2227 23.078 81.3556 23.1364ZM91.7347 18.4205L91.7022 18.1707C91.8871 18.401 92.1336 19.507 93.3434 19.6043C94.031 19.6594 95.2992 19.3546 95.935 19.1275C96.7783 18.8259 98.8022 17.8464 99.5417 17.3793C99.6682 17.2982 99.8887 17.1069 100.031 17.0874C100.229 17.4734 100.794 18.9913 100.92 19.494C101.254 20.8238 100.473 22.1504 99.892 23.2824C99.8239 23.4121 99.7784 23.5418 99.7039 23.6521C99.5125 23.6813 97.9978 23.3732 97.7318 23.3051C97.1026 23.1494 96.5577 22.945 96.0679 22.6369C95.5036 22.2801 95.3349 21.9525 94.9814 21.3817C94.6862 20.9082 94.4332 20.3698 94.1284 19.9027C94.0213 19.8865 93.5543 19.9059 93.4407 19.9773C93.5089 20.2141 93.7748 20.6552 93.8948 20.8628C94.0765 21.1741 94.2094 21.4012 94.4138 21.6996C94.7868 22.2542 95.1663 22.718 95.7209 23.0845C96.788 23.7883 98.1437 23.8629 99.3827 24.1192C99.519 24.1484 99.8174 24.2197 99.9536 24.2165C100.495 23.1202 101.507 21.4855 101.546 19.9773C101.588 18.2842 100.631 17.1393 100.547 16.6009C100.534 16.5133 100.674 16.1695 100.7 16.0495C100.748 15.8354 100.745 15.5922 100.742 15.3554C100.735 14.5673 100.297 13.9348 99.7006 13.4742C99.0714 12.9909 98.4908 12.7055 97.4691 12.7834C96.7523 12.8385 95.922 13.3218 95.3836 13.6202C95.3122 13.6591 95.2214 13.698 95.1598 13.7467C95.0333 13.8472 95.1176 13.8894 95.0268 13.9899C94.9814 14.0418 94.91 14.0905 94.8452 14.1586C94.683 14.324 94.1446 15.1316 94.1575 15.3197C94.3424 15.3878 94.7868 15.3716 95.0171 15.4105C95.8117 15.5435 95.8052 15.177 96.1977 14.6581C96.2982 14.5218 96.5447 14.2202 96.5999 14.0645C96.2982 14.0483 96.0128 13.977 95.7144 13.9348C95.6301 13.9218 95.5068 13.9153 95.4355 13.8667C95.6885 13.4742 96.6939 14.1229 97.1383 13.5813C97.2356 13.4612 97.3491 13.2407 97.5697 13.3899C97.5048 13.5521 97.2777 13.6818 97.2129 13.8407C97.3783 13.9413 97.9589 14.0386 98.2119 14.1099C98.3935 14.1618 98.5427 14.191 98.7114 14.097C98.906 13.9932 98.893 13.8407 99.0941 14.0386C99.0616 14.1521 98.9514 14.1975 98.9027 14.3143C99.0065 14.4051 99.3373 14.5478 99.4736 14.6224C99.7071 14.7456 99.8466 14.7975 99.9147 15.1057C99.7752 15.083 99.6779 14.9889 99.5676 14.9338C98.7341 14.5056 98.5459 14.4148 97.9816 15.2808C97.894 15.4138 97.654 15.8095 97.6086 15.9425C97.8356 16.0852 98.147 16.2052 98.4194 16.3868C98.6173 16.5166 98.9968 16.7825 99.1006 16.9869C98.9935 16.9642 98.5492 16.5912 98.4194 16.5101C98.2378 16.3966 97.8453 16.1695 97.5502 16.2117C97.2031 16.2603 97.0669 17.0906 97.028 17.4117C97.0053 17.5999 97.015 17.8074 96.9761 17.9729C96.8496 17.9047 96.895 17.5836 96.8983 17.4572C96.9015 17.3144 96.9307 17.0971 96.9599 16.9479C96.9923 16.7955 97.0377 16.6366 97.0864 16.5003C97.1285 16.3803 97.2323 16.1663 97.2486 16.0527C97.1285 15.9684 96.7231 15.8776 96.5415 15.829C95.7922 15.6279 95.7112 15.6927 95.4387 16.429C95.3576 16.6431 95.1954 16.9479 95.1987 17.1717C95.8798 17.415 96.5934 17.7264 96.9599 18.388C96.8496 18.375 96.6907 18.1967 96.6226 18.1383C96.5188 18.0507 96.3793 17.9469 96.2788 17.8788C95.2733 17.2042 94.8095 17.2301 94.7608 18.5178L94.7868 19.0237C94.7738 19.1016 94.7965 19.0562 94.7479 19.1081C94.6246 18.8745 94.6603 18.4756 94.6797 18.1902C94.6992 17.9015 94.79 17.655 94.8224 17.3728C94.5727 17.2561 93.8462 17.1555 93.4991 17.1555C93.2105 17.1555 93.0969 17.2107 93.0094 17.4507C92.938 17.6485 92.9023 17.8626 92.8537 18.0766C92.7823 18.0572 92.805 18.0734 92.7629 18.0183C92.6202 17.8366 92.8342 17.415 92.8504 17.2042L92.5001 17.2009L92.4709 16.9966C93.0223 16.7728 92.8602 17.1879 93.165 16.4744C93.2591 16.2506 93.5121 15.829 93.5478 15.6506C93.3369 15.5403 93.0223 15.6279 92.7791 15.6408C92.8439 15.3295 93.0807 15.4008 93.3694 15.3846C93.8494 15.3554 94.0148 15.0213 94.2451 14.6678C94.3359 14.5251 94.55 14.2721 94.5857 14.1683C94.4722 13.8018 93.6451 13.6656 93.2267 13.5877C93.071 13.5585 92.9704 13.5488 92.8245 13.5131C92.7207 13.4872 92.5326 13.4061 92.445 13.4191C92.3574 13.4321 91.9131 13.7272 91.8904 13.8407C92.4126 13.8602 93.7197 13.9283 94.1348 14.1099C94.0602 14.2332 93.1878 14.4602 92.9834 14.5608C92.6623 14.7197 92.338 14.9467 92.0752 15.2322C91.8093 15.5208 91.6114 15.8192 91.4979 16.2474C91.3422 16.8474 91.5336 17.1263 91.5531 17.6745L91.446 17.522C90.9725 16.7955 90.6319 16.442 89.9346 15.9263C89.7432 15.7868 89.5745 15.6376 89.354 15.4819C89.088 15.5695 89.3605 15.6084 88.9388 15.4397C88.4329 15.2354 87.9334 15.1576 87.356 15.19C87.3268 15.31 87.5409 15.8517 87.5831 15.9846C87.6479 16.1955 87.7258 16.6203 87.9074 16.7241C87.9853 16.7663 89.5032 17.1166 89.6459 17.1198C89.5843 16.5263 89.4091 16.163 89.367 15.8419C89.7432 15.936 89.8697 16.682 89.9443 17.0063C90.087 17.6193 90.859 17.3047 90.8168 17.8237C90.6773 17.8399 90.3627 17.6615 90.1778 17.6388C90.1681 17.9956 90.2913 18.3394 90.3141 18.7221C90.34 19.1697 90.4989 19.2637 90.8135 19.4227L90.7681 19.64C90.58 19.6594 90.5606 19.5427 90.3595 19.5719C90.2914 19.9676 90.4114 20.7946 89.9702 20.8984C89.9994 20.36 90.2686 19.5524 89.7919 19.267C89.4805 19.0789 88.9778 19.0335 88.6015 18.9881C88.5172 18.9783 88.4685 18.9686 88.3745 18.9621C88.2901 18.9556 88.2091 18.9264 88.1669 18.9718C88.0923 19.121 88.0469 19.8313 87.9982 20.0649C87.969 20.2108 87.9074 20.4022 87.8523 20.5417L87.6155 20.9406C87.6187 20.8692 87.8393 20.1784 87.888 19.9157C87.9463 19.5881 87.9723 18.9978 87.6998 18.8713C87.356 18.7124 86.1754 18.9686 85.7732 19.16C85.6889 19.1989 85.6435 19.2443 85.5332 19.2573C85.7278 18.7805 87.3722 18.6378 87.8458 18.5956C87.8944 18.3037 87.7939 17.2366 87.5539 17.055C87.3139 16.8766 85.9776 16.8993 85.8867 16.9901C85.8154 17.1101 85.7959 18.0864 85.744 18.3329C85.6727 18.6767 85.491 19.1502 85.2543 19.3286C85.2867 18.9978 85.8608 17.8723 85.5494 17.175C85.3905 16.8214 84.9072 16.9447 84.5764 17.0355C84.3072 17.1101 83.7817 17.3728 83.6131 17.402C83.665 17.2593 83.8628 17.1912 83.9926 17.1296C84.5115 16.8831 85.1505 16.8506 85.4521 16.7112C85.4554 16.4095 85.2543 15.5792 85.1408 15.297C84.8845 14.6743 84.4402 15.0019 83.8466 15.0343C84.012 14.6062 84.5245 14.8365 84.7775 14.6483C84.7418 14.5478 84.6607 14.4148 84.6542 14.2948C84.7451 14.2526 84.7905 14.2137 84.8975 14.1845C84.917 14.2299 85.0629 14.5478 85.0953 14.5835C85.1894 14.6937 85.4327 14.671 85.611 14.6743L86.6911 14.7165C86.8501 14.6905 86.7268 14.5867 86.6035 14.311C86.5516 14.1943 86.4349 14.0191 86.4219 13.8991C86.9538 13.9283 86.7819 14.4894 87.2879 14.804C87.5863 14.9889 88.0404 14.9662 88.381 15.044C88.5334 15.0797 88.6048 15.1543 88.7021 15.177C88.8448 15.0732 88.955 14.7359 89.4837 14.4278C89.7108 14.2948 90.3173 14.0191 90.5995 14.0094C90.2232 14.5056 89.3702 14.8624 89.3962 15.2905C89.5908 15.2159 91.459 13.9997 91.5076 13.8472C91.3422 13.7596 90.9303 13.6137 90.7162 13.591C90.2913 13.5456 90.2005 13.7499 89.9475 13.9056C89.7302 14.0386 89.4999 14.1553 89.2534 14.2916C88.2285 14.8624 88.7475 14.7878 87.9139 13.9348C87.1809 13.1856 85.9905 12.6244 84.8748 12.9747C84.2001 13.1856 83.678 13.6526 83.2141 14.058C82.9352 14.3013 82.7568 14.4667 82.5914 14.8429C82.3773 15.3295 82.3319 16.056 82.6368 16.5522C83.4704 17.9047 83.4996 18.0864 84.8196 19.2962C85.0597 19.5135 85.3159 19.7535 85.5592 19.9643L87.103 21.2325C87.3463 21.4206 87.6706 21.6769 87.9107 21.8293C87.8847 21.9785 87.7387 22.0628 87.6252 22.1666C86.117 23.5353 85.5592 24.4662 83.1525 24.4597C82.5525 24.4597 82.0011 24.3851 81.4173 24.3527C81.2746 24.3462 80.9275 24.3754 80.8594 24.2846C80.8334 24.2489 80.4767 22.4423 80.4442 22.2412C80.3307 21.5114 80.295 20.6811 80.4961 19.987C80.7459 19.121 81.4302 18.4269 81.9687 17.7653C82.5946 16.9933 82.5817 17.1815 82.3352 16.7306L82.1243 16.4063C81.9589 16.5393 81.6378 17.0031 81.4854 17.1847C80.0291 18.9005 79.4096 20.0876 79.9123 22.478L80.2885 24.2262C80.3177 24.3559 80.3664 24.7127 80.441 24.8133C80.8205 24.8262 81.1351 24.8522 81.4951 24.8846C82.3935 24.9657 83.8726 24.9949 84.6932 24.8392C86.2338 24.5473 86.6587 24.1386 87.609 23.2305C87.8198 23.0261 88.5529 22.2218 88.7929 22.1569C88.8869 22.1309 89.1724 22.1245 89.2924 22.1082C89.4675 22.0855 89.6264 22.0434 89.7724 22.0012C91.1736 21.5958 92.0266 19.867 91.7509 18.4269L91.7347 18.4205ZM78.3165 5.92351C77.9792 5.94946 77.6062 5.90405 77.3046 5.99487C77.0743 6.06622 76.7694 6.26083 76.7435 6.53976C76.7175 6.82519 77.0321 7.03601 77.2397 7.13655C77.6127 7.31494 77.8787 7.30846 78.0506 7.42522C78.0927 7.68469 77.7846 7.88254 78.057 8.02526C78.2387 8.11931 78.7966 8.2231 79.0722 8.32041C79.2117 8.3723 79.2636 8.41122 79.2669 8.57015C79.2766 8.96909 79.3123 8.95612 79.562 9.16046C79.8701 9.4102 80.308 9.67292 80.8626 9.56264C81.2681 9.48156 82.1114 9.3583 82.2541 9.754C82.1795 10.0102 81.6703 10.1919 81.56 10.3865C81.3978 10.6719 81.9978 10.9379 82.2184 11.0092C83.0585 11.2817 83.9796 10.5065 84.3785 10.7043C84.4207 10.9476 83.9504 11.2914 84.3493 11.5638C84.5926 11.7293 85.0272 11.8201 85.3808 11.7455C85.6435 11.6903 86.0035 11.4957 86.2435 11.3854C86.4511 11.2881 87.0284 10.9379 87.0901 11.3692C87.0219 11.4795 86.8436 11.6319 86.743 11.7325C86.6684 11.8071 86.6263 11.8493 86.5679 11.9076C86.4771 11.9952 86.4608 12.0536 86.49 12.1963C86.5581 12.3131 87.6123 12.4266 87.8653 12.4688C88.0955 12.5077 88.3518 12.5336 88.5821 12.5758C88.7994 12.618 89.1659 12.5888 89.2372 12.7736C89.0394 12.9001 88.2999 13.1499 89.2794 13.3931C89.5032 13.4483 89.7756 13.4515 90.0221 13.4223C90.6708 13.3445 90.8103 13.4807 91.3293 13.6267C91.4395 13.2569 91.4752 13.2926 91.2384 13.0169C91.1022 12.858 91.0309 12.6861 90.953 12.4493C90.859 12.1574 90.6676 11.2752 90.5249 11.1487C90.3562 11.233 90.3757 11.4179 90.1194 11.3919C89.9605 11.1714 89.967 10.0816 89.9411 9.7086C89.8989 9.141 89.8405 8.5961 89.5226 8.26203C89.2761 8.22959 89.221 8.48582 89.1269 8.63502C89.0394 8.77449 88.9064 8.93017 88.7734 9.05991C87.982 9.83833 88.248 8.22959 88.0144 7.09439C87.7971 6.05001 86.5744 5.46294 86.3765 5.7808C86.2241 6.02406 86.2922 6.5949 86.1462 6.73437C85.89 6.97763 85.757 6.30948 85.6921 6.12136C85.6273 5.93324 85.5462 5.75485 85.4619 5.57646C85.1732 4.9667 84.505 4.19801 83.8239 4.07151C83.1687 3.94826 83.2725 4.20774 83.1363 4.90507C83.0974 5.09968 83.0844 5.3851 82.9287 5.47916C82.5233 5.72891 82.0919 4.85318 81.5308 4.58722C81.1578 4.41207 80.6129 4.35045 80.2302 4.54181C79.7534 4.78182 80.454 5.2878 80.4053 5.64133C80.3794 5.83594 80.1718 5.71269 79.8474 5.61214C78.0895 5.07049 78.5436 5.52457 78.3133 5.93324L78.3165 5.92351ZM84.9137 7.90525C84.8099 7.87606 84.4337 7.6101 84.1904 7.49333C83.918 7.3636 83.7071 7.25656 83.4282 7.14953C82.9028 6.94844 82.3189 6.75059 81.7449 6.62734C81.1546 6.50084 80.4183 6.37759 79.7988 6.36786C79.322 6.35813 78.1057 6.33218 77.8657 6.63058C78.1154 6.62085 78.3717 6.5722 78.6441 6.56247C80.295 6.49435 81.9849 6.73761 83.4801 7.42846C83.6715 7.51604 83.7136 7.50955 83.759 7.62631C82.4941 7.57766 80.6972 7.94417 79.8539 8.4696C79.9058 8.50204 79.9739 8.48582 80.0453 8.46312C80.1199 8.44042 80.1653 8.4242 80.2366 8.40149C81.3946 8.0285 81.8973 7.89552 83.2174 7.84362C84.1353 7.80794 84.291 7.81443 84.8683 8.22635C85.0856 8.37879 85.903 9.02099 85.9613 9.17667C85.3483 9.19938 84.7321 9.31614 84.1969 9.47507C83.9018 9.56264 82.8898 9.9551 82.7665 10.1043C82.8411 10.1465 82.9287 10.1043 83.0098 10.0719C83.0974 10.0362 83.1493 10.0102 83.2401 9.97456C83.3893 9.91293 83.5547 9.84482 83.7136 9.79293C84.3785 9.56264 85.1959 9.37128 85.9094 9.34857C86.3311 9.33236 86.3733 9.49777 86.756 9.83833C87.2652 10.2892 87.6609 10.6168 88.1863 11.0481C88.4264 11.246 89.487 12.1444 89.7335 12.1801C89.7075 12.0049 89.474 11.859 89.3475 11.7455L87.129 9.84482C86.7073 9.47182 85.6921 8.64799 85.4002 8.28149C85.1472 7.96363 85.024 7.62307 84.8164 7.20467C84.6445 6.85762 84.4531 6.46516 84.291 6.09541C84.2001 5.88459 83.8596 4.98292 83.798 4.93102C83.7882 4.94399 83.7396 4.91156 83.8012 5.12887C84.0607 6.03054 84.2066 6.31597 84.5958 7.17223C84.6867 7.37008 84.8813 7.72037 84.917 7.90849L84.9137 7.90525ZM93.2948 11.4146C93.4667 11.3336 93.7975 10.8146 93.95 10.607L94.8646 9.30966C94.9619 9.17019 95.0689 9.0145 95.176 8.86855C95.4582 8.47934 95.8279 7.96363 96.0712 7.55171C96.1717 7.38306 96.2334 7.22737 96.428 7.15602C96.7815 7.02628 97.3167 7.01655 97.6994 6.94195C98.014 6.88357 98.7989 6.89978 99.133 6.93546C99.36 6.95817 99.5741 6.98736 99.8011 7.00357C99.9471 7.0133 100.294 7.14953 100.398 6.98736C100.177 6.84465 98.8378 6.7441 98.4713 6.74086C98.1048 6.73761 97.787 6.77653 97.4399 6.80572C97.1156 6.83167 96.7847 6.92897 96.4766 6.9679C96.5155 6.76356 97.2323 5.8035 97.4172 5.56025C97.8226 5.02508 98.1892 4.85318 98.88 4.69101C99.2011 4.61641 99.519 4.53532 99.8303 4.48343C100.638 4.3472 101.176 4.29207 102.01 4.30828C102.38 4.31477 102.782 4.39261 103.145 4.35693C102.905 4.09422 100.953 4.14935 100.703 4.16233C100.304 4.18179 99.4087 4.33423 98.9935 4.43478C98.8541 4.46721 98.5686 4.56127 98.4357 4.56127C98.4811 4.47045 98.4908 4.48018 98.5686 4.40559C98.6108 4.36666 98.653 4.3245 98.7114 4.2726C98.9806 4.02286 99.3827 3.72771 99.6974 3.52337C100.148 3.22822 100.664 2.94604 101.186 2.70278C102.253 2.20978 103.473 1.81408 104.764 1.65516C104.232 1.43785 102.944 1.83354 102.432 1.98599C101.77 2.18059 101.047 2.50493 100.453 2.81955C99.4573 3.34498 98.3805 4.06827 97.5988 4.8921C97.4983 4.99913 97.3459 5.22293 97.2291 5.26185C97.2421 5.00886 97.3459 4.64884 97.388 4.37964C97.4691 3.87042 97.7643 1.84327 97.6086 1.5611C97.4983 1.59029 97.521 1.78489 97.5178 1.88868C97.4853 2.80333 97.2842 3.76339 97.1253 4.63911C97.0183 5.24239 97.0118 5.56025 96.7393 6.04676C96.5123 6.45219 95.5847 7.81119 95.3252 8.2004C94.6895 9.15073 94.031 10.1627 93.3759 11.1033C93.3402 11.1552 93.311 11.1908 93.2851 11.2427C93.2461 11.3238 93.2591 11.3336 93.2623 11.3595C93.2688 11.4082 93.2688 11.3984 93.2818 11.4211L93.2948 11.4146Z" fill="white"/>
</svg>
